# xmcd CD database file
#
# Track frame offsets:
#	150
#	22591
#	39243
#	57259
#	83105
#	100246
#	117202
#	140506
#	156290
#	177499
#	198173
#	216236
#	233896
#
# Disc length: 3379 seconds
#
# Revision: 5
# Processed by: cddbd v1.5.2PL0 Copyright (c) Steve Scherf et al.
# Submitted via: CDex 1.70beta2
#
DISCID=a60d310d
DTITLE=Solid - Solidate
DYEAR=1997
DGENRE=Blues
TTITLE0=끝이 아니길
TTITLE1=끼리 끼리
TTITLE2=체념
TTITLE3=혼자 남은 너를 보며
TTITLE4=너의 착각
TTITLE5=어둠이 걷히면
TTITLE6=사랑
TTITLE7=생일 선물
TTITLE8=날 사랑 할 때까지
TTITLE9=So in love
TTITLE10=If you want my lovin'
TTITLE11=Pass me the mic
TTITLE12=Someday
EXTD=<V8.5e 4A} YEAR: 1997
EXTT0=
EXTT1=
EXTT2=
EXTT3=
EXTT4=
EXTT5=
EXTT6=
EXTT7=
EXTT8=
EXTT9=
EXTT10=
EXTT11=
EXTT12=
PLAYORDER=
